<svg xmlns="http://www.w3.org/2000/svg" width="57" height="57" viewBox="0 0 57 57">
  <g id="Group_3" data-name="Group 3" transform="translate(-914 -495)">
    <circle id="Ellipse_3" data-name="Ellipse 3" cx="28.5" cy="28.5" r="28.5" transform="translate(914 495)" fill="#212529"/>
    <path id="iconmonstr-behance-1" d="M27.194,7.472H18.542V5h8.653Zm2.134,12.361c-.546,1.6-2.508,3.708-6.305,3.708s-6.878-2.137-6.878-7.015c0-4.833,2.874-7.318,6.757-7.318,3.81,0,6.136,2.2,6.644,5.471a16.551,16.551,0,0,1,.117,2.645H19.741a3.33,3.33,0,0,0,5.671,2.508Zm-9.5-4.944h6.137A2.762,2.762,0,0,0,22.9,12.146,2.832,2.832,0,0,0,19.827,14.889ZM7.993,23.527H0V5.026H8.595c6.769.1,6.9,6.729,3.362,8.537C16.235,15.12,16.378,23.527,7.993,23.527ZM3.708,12.417h4.43c3.1,0,3.592-3.708-.386-3.708H3.708v3.708ZM7.9,16.125H3.708v3.728h4.13C11.615,19.853,11.383,16.125,7.9,16.125Z" transform="translate(928 509)" fill="#f8f9fa"/>
  </g>
</svg>
