<svg xmlns="http://www.w3.org/2000/svg" width="57" height="57" viewBox="0 0 57 57">
  <g id="Group_2" data-name="Group 2" transform="translate(-842 -495)">
    <circle id="Ellipse_2" data-name="Ellipse 2" cx="28.5" cy="28.5" r="28.5" transform="translate(842 495)" fill="#212529"/>
    <path id="iconmonstr-dribbble-1" d="M14.833,0A14.833,14.833,0,1,0,29.667,14.833,14.833,14.833,0,0,0,14.833,0ZM27.052,14.142a26.459,26.459,0,0,0-8.78-.09c-.3-.7-.614-1.391-.948-2.077A17.5,17.5,0,0,0,24.182,6.93,12.192,12.192,0,0,1,27.052,14.142Zm-4.749-9A15,15,0,0,1,16.14,9.69a57.216,57.216,0,0,0-4.312-6.722A12.079,12.079,0,0,1,22.3,5.141ZM9.3,3.914a55.119,55.119,0,0,1,4.372,6.652A39.313,39.313,0,0,1,2.942,11.931,12.276,12.276,0,0,1,9.3,3.914ZM2.58,14.833l.016-.316a41.455,41.455,0,0,0,12.3-1.634q.432.881.828,1.77a19.092,19.092,0,0,0-10.305,8.01,12.2,12.2,0,0,1-2.838-7.83Zm4.733,9.654a16.658,16.658,0,0,1,9.392-7.45,48.377,48.377,0,0,1,2.525,9.221A12.143,12.143,0,0,1,7.313,24.487Zm14.322.532a50.8,50.8,0,0,0-2.373-8.525,24.681,24.681,0,0,1,7.663.242,12.266,12.266,0,0,1-5.289,8.283Z" transform="translate(856 509)" fill="#f8f9fa"/>
  </g>
</svg>
