<svg xmlns="http://www.w3.org/2000/svg" width="57" height="57" viewBox="0 0 57 57">
  <g id="Group_4" data-name="Group 4" transform="translate(-986 -495)">
    <circle id="Ellipse_4" data-name="Ellipse 4" cx="28.5" cy="28.5" r="28.5" transform="translate(986 495)" fill="#212529"/>
    <path id="iconmonstr-instagram-11" d="M14.833,2.674c3.961,0,4.43.015,6,.087,4.02.183,5.9,2.09,6.08,6.08.072,1.564.085,2.033.085,5.994s-.015,4.43-.085,5.994c-.184,3.986-2.057,5.9-6.08,6.08-1.565.072-2.032.087-6,.087s-4.43-.015-5.994-.087c-4.03-.184-5.9-2.1-6.08-6.082-.072-1.564-.087-2.032-.087-5.994s.016-4.429.087-5.994c.184-3.989,2.057-5.9,6.08-6.08,1.565-.07,2.033-.085,5.994-.085Zm0-2.674C10.8,0,10.3.017,8.718.089,3.331.336.337,3.325.09,8.717.017,10.3,0,10.8,0,14.833s.017,4.534.089,6.116c.247,5.387,3.236,8.381,8.628,8.628,1.583.072,2.088.089,6.116.089s4.534-.017,6.116-.089c5.382-.247,8.383-3.236,8.627-8.628.073-1.582.09-2.088.09-6.116s-.017-4.533-.089-6.115C29.335,3.336,26.343.337,20.951.09,19.367.017,18.862,0,14.833,0Zm0,7.216a7.618,7.618,0,1,0,7.617,7.617A7.617,7.617,0,0,0,14.833,7.216Zm0,12.561a4.944,4.944,0,1,1,4.944-4.944A4.944,4.944,0,0,1,14.833,19.778ZM22.752,5.136a1.78,1.78,0,1,0,1.779,1.78A1.781,1.781,0,0,0,22.752,5.136Z" transform="translate(1000 509)" fill="#f8f9fa"/>
  </g>
</svg>
