<svg xmlns="http://www.w3.org/2000/svg" width="57" height="57" viewBox="0 0 57 57">
  <g id="Group_5" data-name="Group 5" transform="translate(-1058 -495)">
    <circle id="Ellipse_5" data-name="Ellipse 5" cx="28.5" cy="28.5" r="28.5" transform="translate(1058 495)" fill="#212529"/>
    <path id="iconmonstr-twitter-1" d="M29.667,5.1a12.152,12.152,0,0,1-3.5.958,6.1,6.1,0,0,0,2.676-3.367A12.193,12.193,0,0,1,24.982,4.17,6.09,6.09,0,0,0,14.61,9.72,17.279,17.279,0,0,1,2.066,3.362a6.094,6.094,0,0,0,1.883,8.126,6.061,6.061,0,0,1-2.755-.761,6.091,6.091,0,0,0,4.881,6.045,6.1,6.1,0,0,1-2.749.1A6.091,6.091,0,0,0,9.011,21.1,12.238,12.238,0,0,1,0,23.623a17.23,17.23,0,0,0,9.33,2.734c11.3,0,17.685-9.544,17.3-18.1A12.392,12.392,0,0,0,29.667,5.1Z" transform="translate(1072 508.752)" fill="#f8f9fa"/>
  </g>
</svg>
